#!OML:ASF F:\VICON\USERDATA\Patient Classification 1\PLAYGROUND\JustinFriday\JustinFriday.ASF
:FULLY-SPECIFIED
:DEGREES
2038
root 14.8537 26.7285 47.3245 191.814 -11.7863 -177.009
lowerback 55.7662 -10.576 5.09928
upperback -6.98571 -10.8211 -0.784963
thorax -33.2966 -4.01582 3.85434
lowerneck -39.2871 -10.0807 -24.5842
upperneck 10.2895 -5.42186 27.8784
head 10.7708 0.441232 14.3732
rclavicle 2.46493e-014 1.27222e-014
rhumerus -8.27594 38.7034 -87.6077
rradius 69.8013
rwrist 15.0365
rhand -17.2701 -8.39996
rfingers 7.12502
rthumb 8.97474 -38.1891
lclavicle 2.46493e-014 1.27222e-014
lhumerus -9.49529 -6.19222 65.1216
lradius 59.9589
lwrist -27.9078
lhand -25.9842 -30.2627
lfingers 7.12502
lthumb 0.560971 -0.283705
rfemur -40.263 -5.75296 33.2608
rtibia 50.7372
rfoot -25.9261 -8.7648
rtoes 16.1199
lfemur -42.7284 11.9035 -12.8936
ltibia 69.7588
lfoot -12.9151 -0.456971
ltoes -1.51006
2039
root 14.8654 26.7733 47.292 191.861 -12.2303 -176.961
lowerback 55.7883 -10.8811 5.42366
upperback -7.00943 -10.9918 -0.827596
thorax -33.3892 -4.11078 3.77535
lowerneck -39.4234 -10.0494 -24.4337
upperneck 10.4501 -5.44863 27.8426
head 10.849 0.43611 14.3452
rclavicle 1.43125e-014 6.99722e-014
rhumerus -8.61785 39.0341 -87.8659
rradius 68.9654
rwrist 15.1954
rhand -18.9909 -7.2425
rfingers 7.12502
rthumb 7.31395 -37.0961
lclavicle 1.43125e-014 6.99722e-014
lhumerus -9.42765 -6.68295 64.854
lradius 59.4439
lwrist -27.9662
lhand -25.9937 -29.818
lfingers 7.12502
lthumb 0.551867 0.161051
rfemur -39.8672 -5.8993 33.3595
rtibia 49.9686
rfoot -25.4932 -8.85622
rtoes 16.5968
lfemur -43.3842 11.8417 -12.815
ltibia 70.7413
lfoot -13.2373 -1.38844
ltoes -4.72216
2040
root 14.8741 26.8218 47.2559 191.903 -12.6158 -176.908
lowerback 55.7641 -11.1907 5.76195
upperback -7.00571 -11.1751 -0.903484
thorax -33.44 -4.22072 3.65184
lowerneck -39.4014 -10.1152 -24.2488
upperneck 10.4274 -5.64784 27.8688
head 10.8997 0.361162 14.2879
rclavicle -1.66979e-014 3.18055e-014
rhumerus -8.99534 39.3473 -88.2547
rradius 68.0467
rwrist 15.0417
rhand -21.0455 -5.25519
rfingers 7.12502
rthumb 5.33041 -35.1682
lclavicle -1.66979e-014 3.18055e-014
lhumerus -9.49329 -7.11238 64.4963
lradius 59.0454
lwrist -28.0432
lhand -25.9746 -29.9079
lfingers 7.12502
lthumb 0.570281 0.0711243
rfemur -39.4372 -6.18541 33.4918
rtibia 49.1716
rfoot -25.2014 -8.75433
rtoes 17.2369
lfemur -43.967 11.7622 -12.7066
ltibia 71.5771
lfoot -13.2885 -3.23795
ltoes -2.59273
2041
root 14.8749 26.8722 47.1952 192.024 -12.2223 -176.578
lowerback 55.3469 -11.0575 5.84467
upperback -6.9018 -10.9954 -0.958684
thorax -33.2229 -4.21661 3.39313
lowerneck -39.322 -10.1669 -24.2105
upperneck 10.4162 -5.79062 28.0053
head 10.941 0.31118 14.3199
rclavicle 2.14687e-014 -1.59028e-015
rhumerus -9.25743 39.6531 -88.678
rradius 67.0114
rwrist 15.1055
rhand -22.8268 -5.44892
rfingers 7.12502
rthumb 3.61035 -35.3981
lclavicle 2.14687e-014 -1.59028e-015
lhumerus -9.55058 -7.55105 64.1276
lradius 58.6727
lwrist -27.7593
lhand -25.1166 -29.2436
lfingers 7.12502
lthumb 1.39894 0.731589
rfemur -38.9164 -5.85481 33.8225
rtibia 48.3353
rfoot -25.1441 -8.42904
rtoes 18.042
lfemur -44.3525 12.4858 -12.421
ltibia 72.1644
lfoot -13.4666 -4.55929
ltoes 0.462173
2042
root 14.8826 26.9213 47.1648 191.877 -12.6858 -176.643
lowerback 55.5696 -11.4144 6.08612
upperback -6.91314 -11.2815 -0.995993
thorax -33.3135 -4.32759 3.4445
lowerneck -39.1881 -10.1434 -24.2976
upperneck 10.4072 -5.77703 28.1411
head 10.9304 0.318591 14.3991
rclavicle 0 -5.08889e-014
rhumerus -9.34771 39.915 -89.014
rradius 65.917
rwrist 15.7508
rhand -24.2031 -7.91769
rfingers 7.12502
rthumb 2.28122 -37.8852
lclavicle 0 -5.08889e-014
lhumerus -9.67185 -8.05854 63.8498
lradius 58.5045
lwrist -27.2304
lhand -23.8826 -27.6047
lfingers 7.12502
lthumb 2.59071 2.35933
rfemur -38.2968 -6.22995 33.7706
rtibia 47.5582
rfoot -24.939 -8.4299
rtoes 18.2888
lfemur -44.6776 12.1005 -12.4333
ltibia 72.4887
lfoot -13.5661 -5.1606
ltoes 2.18871
2043
root 14.8872 26.9726 47.1111 192.172 -12.1764 -176.733
lowerback 55.1432 -11.0772 5.72638
upperback -6.84467 -11.1492 -1.03904
thorax -33.1102 -4.26153 3.42805
lowerneck -38.8817 -10.1024 -24.3305
upperneck 10.2786 -5.77 28.1373
head 10.8456 0.299776 14.3768
rclavicle 2.22639e-014 -1.90833e-014
rhumerus -9.52669 40.0235 -89.335
rradius 65.0298
rwrist 16.4268
rhand -25.5054 -8.63874
rfingers 7.12502
rthumb 1.02344 -38.616
lclavicle 2.22639e-014 -1.90833e-014
lhumerus -9.80502 -8.64734 63.6437
lradius 58.4216
lwrist -27.0164
lhand -22.9252 -25.9252
lfingers 7.12502
lthumb 3.51537 4.02551
rfemur -37.9531 -5.89377 33.659
rtibia 46.837
rfoot -24.4741 -8.30988
rtoes 18.2526
lfemur -45.1234 12.8816 -12.6714
ltibia 72.6139
lfoot -13.8048 -6.01216
ltoes 1.38589
2044
root 14.8947 27.0171 47.0671 192.233 -12.0462 -176.959
lowerback 55.0706 -10.9919 5.48671
upperback -6.81782 -11.2531 -1.1443
thorax -33.065 -4.27243 3.46104
lowerneck -38.6611 -10.1011 -24.1988
upperneck 10.2342 -5.8975 28.1041
head 10.8379 0.229207 14.2984
rclavicle -8.18993e-014 8.11041e-014
rhumerus -9.85653 40.016 -89.8244
rradius 64.2617
rwrist 16.4812
rhand -26.4476 -7.76041
rfingers 7.12502
rthumb 0.1134 -37.7401
lclavicle -8.18993e-014 8.11041e-014
lhumerus -9.90834 -9.36658 63.3034
lradius 58.0636
lwrist -27.127
lhand -22.398 -24.4805
lfingers 7.12502
lthumb 4.0244 5.46128
rfemur -37.534 -5.90269 33.4245
rtibia 46.3047
rfoot -24.0817 -8.24925
rtoes 18.2594
lfemur -45.2628 13.109 -12.9377
ltibia 72.6506
lfoot -14.0117 -6.75348
ltoes 0.544969
2045
root 14.9021 27.0477 47.0309 192.138 -12.2308 -177.046
lowerback 55.1786 -11.1394 5.5388
upperback -6.80941 -11.4352 -1.2402
thorax -33.107 -4.34074 3.44219
lowerneck -38.5737 -10.0975 -24.0039
upperneck 10.3773 -6.0594 28.044
head 10.9198 0.144437 14.2113
rclavicle -7.55382e-014 -3.81667e-014
rhumerus -10.1297 39.953 -90.3805
rradius 63.4714
rwrist 16.1214
rhand -26.6862 -7.49851
rfingers 7.12502
rthumb -0.116993 -37.4782
lclavicle -7.55382e-014 -3.81667e-014
lhumerus -10.05 -10.0771 62.8658
lradius 57.6602
lwrist -27.2001
lhand -21.6724 -23.8968
lfingers 7.12502
lthumb 4.72507 6.03048
rfemur -37.0602 -6.04602 33.3389
rtibia 45.7826
rfoot -23.7515 -8.26683
rtoes 18.245
lfemur -45.2421 12.8988 -12.94
ltibia 72.6402
lfoot -14.1677 -7.53463
ltoes 0.281604
2046
root 14.9037 27.0462 46.9934 192.047 -12.3494 -176.839
lowerback 55.1919 -11.2517 5.73967
upperback -6.79197 -11.43 -1.22095
thorax -33.0922 -4.36921 3.37463
lowerneck -38.2873 -10.0522 -24.0378
upperneck 10.4317 -6.0864 27.9965
head 10.9077 0.0951885 14.1771
rclavicle 1.98785e-014 -5.88403e-014
rhumerus -10.1596 39.8971 -90.7766
rradius 62.578
rwrist 15.8082
rhand -26.7618 -7.56243
rfingers 7.12502
rthumb -0.190043 -37.5421
lclavicle 1.98785e-014 -5.88403e-014
lhumerus -10.19 -10.7124 62.5814
lradius 57.4273
lwrist -27.1235
lhand -20.728 -23.6904
lfingers 7.12502
lthumb 5.63695 6.21467
rfemur -36.6836 -6.08669 33.5658
rtibia 45.3597
rfoot -23.538 -8.31153
rtoes 18.0191
lfemur -45.4019 12.8241 -12.6421
ltibia 72.6938
lfoot -14.4302 -8.4295
ltoes -0.504744
2047
root 14.9059 27.0757 46.9391 192.156 -11.8407 -176.493
lowerback 54.8364 -10.9773 5.6477
upperback -6.70477 -11.1471 -1.16533
thorax -32.8537 -4.29239 3.26989
lowerneck -37.9284 -10.0412 -24.268
upperneck 10.3327 -6.07402 28.1544
head 10.8404 0.0807042 14.2726
rclavicle -4.05521e-014 -8.42847e-014
rhumerus -9.98414 39.8601 -91.1091
rradius 61.5617
rwrist 15.7255
rhand -27.011 -7.6437
rfingers 7.12502
rthumb -0.43073 -37.623
lclavicle -4.05521e-014 -8.42847e-014
lhumerus -10.2812 -11.3135 62.3304
lradius 57.2015
lwrist -26.7295
lhand -19.8198 -23.1159
lfingers 7.12502
lthumb 6.51375 6.76395
rfemur -36.3131 -5.66069 33.9142
rtibia 44.8749
rfoot -23.3992 -8.31829
rtoes 17.3294
lfemur -45.4987 13.5217 -12.3212
ltibia 72.4542
lfoot -14.7028 -9.3561
ltoes -1.95731
